# xmcd
#
# Track frame offsets:
#	150
#	19855
#	43950
#	63647
#
# Disc length: 1167 seconds
#
# Revision: 1
# Processed by: cddbd v1.5.1PL0 Copyright (c) Steve Scherf et al.
# Submitted via: CDex 1.50Beta5
#
DISCID=35048d04
DTITLE=BLOW - MONKEY GAME
DYEAR=1996
DGENRE=Rock
TTITLE0=BLOW/MONKEY GAME
TTITLE1=BLOW/君が泣いた夜
TTITLE2=MONKEY GAME
TTITLE3=君が泣いた夜
EXTD=
EXTT0=
EXTT1=
EXTT2=
EXTT3=
PLAYORDER=
